<?xml version="1.0" standalone="no"?>
<!DOCTYPE svg PUBLIC "-//W3C//DTD SVG 20010904//EN"
 "http://www.w3.org/TR/2001/REC-SVG-20010904/DTD/svg10.dtd">
<svg version="1.0" xmlns="http://www.w3.org/2000/svg"
 width="700.000000pt" height="700.000000pt" viewBox="0 0 700.000000 700.000000"
 preserveAspectRatio="xMidYMid meet">
<metadata>
Created by potrace 1.14, written by Peter Selinger 2001-2017
</metadata>
<g transform="translate(0.000000,700.000000) scale(0.100000,-0.100000)"
fill="#000000" stroke="none">
<path d="M3275 6868 c-49 -10 -97 -21 -105 -23 -35 -7 -189 -71 -240 -98 -319
-172 -572 -527 -616 -862 -3 -27 -8 -59 -10 -70 -7 -33 -6 -217 1 -270 10 -78
44 -214 67 -275 65 -170 184 -349 306 -460 79 -73 231 -176 320 -215 34 -16
62 -33 63 -39 5 -59 0 -229 -7 -236 -5 -4 -652 -265 -1439 -579 -786 -314
-1447 -579 -1468 -588 l-37 -16 2 -829 3 -830 25 -21 c14 -12 97 -51 185 -85
88 -35 174 -70 190 -77 17 -7 118 -47 225 -90 107 -42 209 -82 225 -89 17 -8
84 -35 150 -60 125 -49 138 -54 195 -79 19 -8 112 -45 205 -82 94 -36 184 -72
200 -79 17 -7 62 -26 100 -41 39 -15 84 -33 100 -40 17 -7 163 -66 325 -130
162 -64 309 -122 325 -129 17 -8 84 -35 150 -61 66 -26 134 -53 150 -60 17 -7
73 -30 125 -50 52 -20 109 -43 125 -50 17 -7 73 -29 125 -50 52 -20 104 -41
115 -45 11 -5 42 -18 69 -29 27 -12 60 -21 74 -21 20 0 426 155 537 205 17 7
60 25 98 39 37 14 82 32 100 40 17 8 64 26 102 41 39 14 79 30 90 35 11 5 67
28 125 50 58 23 114 45 125 50 11 5 281 113 600 240 319 128 594 237 610 245
17 7 95 38 175 70 80 31 159 63 175 70 17 7 152 61 300 120 149 59 282 114
297 121 60 31 58 -1 58 863 0 601 -3 796 -12 817 -14 31 -70 58 -313 153 -88
35 -173 69 -190 76 -16 7 -556 223 -1200 480 -643 257 -1185 473 -1202 481
-27 12 -33 21 -34 47 0 18 -2 72 -2 120 l-2 89 89 44 c252 125 441 316 561
566 44 93 89 230 99 307 3 22 9 60 12 84 11 76 5 260 -11 335 -28 135 -63 238
-118 342 -172 326 -463 547 -826 626 -116 26 -352 27 -466 2z"/>
</g>
</svg>
